<?xml version="1.0" encoding="utf-8" standalone="no"?>
<!DOCTYPE svg PUBLIC "-//W3C//DTD SVG 1.1//EN"
  "http://www.w3.org/Graphics/SVG/1.1/DTD/svg11.dtd">
<svg xmlns:xlink="http://www.w3.org/1999/xlink" width="460.8pt" height="345.6pt" viewBox="0 0 460.8 345.6" xmlns="http://www.w3.org/2000/svg" version="1.1">
 <metadata>
  <rdf:RDF xmlns:dc="http://purl.org/dc/elements/1.1/" xmlns:cc="http://creativecommons.org/ns#" xmlns:rdf="http://www.w3.org/1999/02/22-rdf-syntax-ns#">
   <cc:Work>
    <dc:type rdf:resource="http://purl.org/dc/dcmitype/StillImage"/>
    <dc:date>2025-01-31T14:08:45.385257</dc:date>
    <dc:format>image/svg+xml</dc:format>
    <dc:creator>
     <cc:Agent>
      <dc:title>Matplotlib v3.9.2, https://matplotlib.org/</dc:title>
     </cc:Agent>
    </dc:creator>
   </cc:Work>
  </rdf:RDF>
 </metadata>
 <defs>
  <style type="text/css">*{stroke-linejoin: round; stroke-linecap: butt}</style>
 </defs>
 <g id="figure_1">
  <g id="patch_1">
   <path d="M 0 345.6 
L 460.8 345.6 
L 460.8 0 
L 0 0 
z
" style="fill: #ffffff"/>
  </g>
  <g id="axes_1">
   <g id="patch_2">
    <path d="M 57.6 307.584 
L 414.72 307.584 
L 414.72 41.472 
L 57.6 41.472 
z
" style="fill: #ffffff"/>
   </g>
   <g id="PolyCollection_1">
    <path d="M 75.464157 132.807424 
L 75.464157 216.310175 
L 77.095587 211.055792 
L 78.727017 206.060236 
L 80.358447 201.097661 
L 81.989877 196.193785 
L 83.621307 191.3684 
L 85.252736 186.64075 
L 86.884166 182.029683 
L 88.515596 177.553582 
L 90.147026 173.230291 
L 91.778456 169.077045 
L 93.409886 165.110403 
L 95.041316 161.346178 
L 96.672746 157.799378 
L 98.304175 154.484144 
L 99.935605 151.413693 
L 101.567035 148.600268 
L 103.198465 146.055085 
L 104.829895 143.788294 
L 106.461325 141.808933 
L 108.092755 140.124894 
L 109.724185 138.742893 
L 111.355614 137.668443 
L 112.987044 136.905828 
L 114.618474 136.458092 
L 116.249904 136.327021 
L 117.881334 136.513141 
L 119.512764 137.015713 
L 121.144194 137.832735 
L 122.775624 138.960953 
L 124.407053 140.395873 
L 126.038483 142.131776 
L 127.669913 144.161744 
L 129.301343 146.477688 
L 130.932773 149.070379 
L 132.564203 151.929482 
L 134.195633 155.043602 
L 135.827063 158.400327 
L 137.458492 161.986278 
L 139.089922 165.787161 
L 140.721352 169.787827 
L 142.352782 173.972329 
L 143.984212 178.323987 
L 145.615642 182.825456 
L 147.247072 187.45879 
L 148.878502 192.205523 
L 150.509931 197.046732 
L 152.141361 201.963118 
L 153.772791 206.935085 
L 155.404221 211.942812 
L 157.035651 216.966337 
L 158.667081 221.985635 
L 160.298511 226.980697 
L 161.929941 231.931611 
L 163.56137 236.81864 
L 165.1928 241.622303 
L 166.82423 246.32345 
L 168.45566 250.90334 
L 170.08709 255.343715 
L 171.71852 259.626874 
L 173.34995 263.735742 
L 174.98138 267.653938 
L 176.61281 271.365842 
L 178.244239 274.856656 
L 179.875669 278.112464 
L 181.507099 281.120285 
L 183.138529 283.868128 
L 184.769959 286.345037 
L 186.401389 288.541139 
L 188.032819 290.447676 
L 189.664249 292.057048 
L 191.295678 293.362837 
L 192.927108 294.359838 
L 194.558538 295.044074 
L 196.189968 295.412816 
L 197.821398 295.464593 
L 199.452828 295.199198 
L 201.084258 294.617687 
L 202.715688 293.722377 
L 204.347117 292.516836 
L 205.978547 291.005868 
L 207.609977 289.195496 
L 209.241407 287.092935 
L 210.872837 284.706566 
L 212.504267 282.045901 
L 214.135697 279.121545 
L 215.767127 275.945156 
L 217.398556 272.529393 
L 219.029986 268.887874 
L 220.661416 265.035114 
L 222.292846 260.986471 
L 223.924276 256.758083 
L 225.555706 252.366806 
L 227.187136 247.830145 
L 228.818566 243.166185 
L 230.449995 238.393516 
L 232.081425 233.531165 
L 233.712855 228.598515 
L 235.344285 223.615228 
L 236.975715 218.601171 
L 238.607145 213.57633 
L 240.238575 208.560736 
L 241.870005 203.574385 
L 243.501434 198.637152 
L 245.132864 193.768721 
L 246.764294 188.988499 
L 248.395724 184.315542 
L 250.027154 179.768477 
L 251.658584 175.365433 
L 253.290014 171.123962 
L 254.921444 167.060971 
L 256.552873 163.192658 
L 258.184303 159.534445 
L 259.815733 156.100914 
L 261.447163 152.905754 
L 263.078593 149.961702 
L 264.710023 147.280494 
L 266.341453 144.872821 
L 267.972883 142.74828 
L 269.604312 140.915341 
L 271.235742 139.381312 
L 272.867172 138.152308 
L 274.498602 137.233229 
L 276.130032 136.627741 
L 277.761462 136.338256 
L 279.392892 136.365931 
L 281.024322 136.710654 
L 282.655751 137.371053 
L 284.287181 138.344496 
L 285.918611 139.627103 
L 287.550041 141.213761 
L 289.181471 143.098147 
L 290.812901 145.272748 
L 292.444331 147.728897 
L 294.075761 150.456802 
L 295.70719 153.445592 
L 297.33862 156.68335 
L 298.97005 160.157171 
L 300.60148 163.853208 
L 302.23291 167.756727 
L 303.86434 171.852168 
L 305.49577 176.123205 
L 307.1272 180.552813 
L 308.75863 185.123334 
L 310.390059 189.816548 
L 312.021489 194.613747 
L 313.652919 199.495809 
L 315.284349 204.44327 
L 316.915779 209.436411 
L 318.547209 214.455325 
L 320.178639 219.480006 
L 321.810069 224.490425 
L 323.441498 229.466607 
L 325.072928 234.388717 
L 326.704358 239.237132 
L 328.335788 243.992525 
L 329.967218 248.63594 
L 331.598648 253.148867 
L 333.230078 257.513315 
L 334.861508 261.711885 
L 336.492937 265.727842 
L 338.124367 269.545175 
L 339.755797 273.148668 
L 341.387227 276.523955 
L 343.018657 279.657581 
L 344.650087 282.537055 
L 346.281517 285.150897 
L 347.912947 287.488688 
L 349.544376 289.541108 
L 351.175806 291.299975 
L 352.807236 292.758278 
L 354.438666 293.910203 
L 356.070096 294.751158 
L 357.701526 295.27779 
L 359.332956 295.488 
L 360.964386 295.380949 
L 362.595815 294.957064 
L 364.227245 294.218035 
L 365.858675 293.166807 
L 367.490105 291.80757 
L 369.121535 290.145742 
L 370.752965 288.187949 
L 372.384395 285.941993 
L 374.015825 283.416828 
L 375.647254 280.62252 
L 377.278684 277.570208 
L 378.910114 274.272058 
L 380.541544 270.741218 
L 382.172974 266.991764 
L 383.804404 263.03864 
L 385.435834 258.897607 
L 387.067264 254.58517 
L 388.698693 250.11852 
L 390.330123 245.515464 
L 391.961553 240.794349 
L 393.592983 235.973996 
L 395.224413 231.07362 
L 396.855843 226.112755 
L 398.487273 221.111178 
L 398.487273 138.340873 
L 398.487273 138.340873 
L 396.855843 143.342462 
L 395.224413 148.303339 
L 393.592983 153.203726 
L 391.961553 158.024091 
L 390.330123 162.745218 
L 388.698693 167.348288 
L 387.067264 171.81495 
L 385.435834 176.1274 
L 383.804404 180.268447 
L 382.172974 184.221584 
L 380.541544 187.971052 
L 378.910114 191.501906 
L 377.278684 194.80007 
L 375.647254 197.852397 
L 374.015825 200.64672 
L 372.384395 203.1719 
L 370.752965 205.417871 
L 369.121535 207.37568 
L 367.490105 209.037524 
L 365.858675 210.396777 
L 364.227245 211.448022 
L 362.595815 212.187069 
L 360.964386 212.610971 
L 359.332956 212.718039 
L 357.701526 212.507848 
L 356.070096 211.981234 
L 354.438666 211.140298 
L 352.807236 209.988392 
L 351.175806 208.530108 
L 349.544376 206.771261 
L 347.912947 204.718861 
L 346.281517 202.381091 
L 344.650087 199.767269 
L 343.018657 196.887817 
L 341.387227 193.754213 
L 339.755797 190.378948 
L 338.124367 186.775478 
L 336.492937 182.958168 
L 334.861508 178.942234 
L 333.230078 174.743688 
L 331.598648 170.379264 
L 329.967218 165.866362 
L 328.335788 161.222973 
L 326.704358 156.467605 
L 325.072928 151.619216 
L 323.441498 146.697133 
L 321.810069 141.720978 
L 320.178639 136.710587 
L 318.547209 131.685934 
L 316.915779 126.667048 
L 315.284349 121.673937 
L 313.652919 116.726505 
L 312.021489 111.844474 
L 310.390059 107.047306 
L 308.75863 102.354123 
L 307.1272 97.783634 
L 305.49577 93.354059 
L 303.86434 89.083055 
L 302.23291 84.987648 
L 300.60148 81.084163 
L 298.97005 77.388162 
L 297.33862 73.914376 
L 295.70719 70.676654 
L 294.075761 67.687901 
L 292.444331 64.960033 
L 290.812901 62.503923 
L 289.181471 60.32936 
L 287.550041 58.445015 
L 285.918611 56.858397 
L 284.287181 55.575831 
L 282.655751 54.60243 
L 281.024322 53.942073 
L 279.392892 53.597393 
L 277.761462 53.569762 
L 276.130032 53.859291 
L 274.498602 54.464826 
L 272.867172 55.38395 
L 271.235742 56.613001 
L 269.604312 58.147078 
L 267.972883 59.980066 
L 266.341453 62.104656 
L 264.710023 64.51238 
L 263.078593 67.193638 
L 261.447163 70.137742 
L 259.815733 73.332955 
L 258.184303 76.76654 
L 256.552873 80.424808 
L 254.921444 84.293176 
L 253.290014 88.356223 
L 251.658584 92.597752 
L 250.027154 97.000855 
L 248.395724 101.547978 
L 246.764294 106.220996 
L 245.132864 111.001279 
L 243.501434 115.869772 
L 241.870005 120.807068 
L 240.238575 125.793483 
L 238.607145 130.809142 
L 236.975715 135.834049 
L 235.344285 140.848174 
L 233.712855 145.831529 
L 232.081425 150.764248 
L 230.449995 155.626669 
L 228.818566 160.399409 
L 227.187136 165.063442 
L 225.555706 169.600177 
L 223.924276 173.991528 
L 222.292846 178.219991 
L 220.661416 182.268711 
L 219.029986 186.12155 
L 217.398556 189.763148 
L 215.767127 193.17899 
L 214.135697 196.355461 
L 212.504267 199.279899 
L 210.872837 201.940648 
L 209.241407 204.327102 
L 207.609977 206.429748 
L 205.978547 208.240208 
L 204.347117 209.751264 
L 202.715688 210.956894 
L 201.084258 211.852295 
L 199.452828 212.433898 
L 197.821398 212.699387 
L 196.189968 212.647704 
L 194.558538 212.279057 
L 192.927108 211.594918 
L 191.295678 210.598016 
L 189.664249 209.292326 
L 188.032819 207.683054 
L 186.401389 205.776619 
L 184.769959 203.58062 
L 183.138529 201.103815 
L 181.507099 198.356078 
L 179.875669 195.348363 
L 178.244239 192.092664 
L 176.61281 188.601959 
L 174.98138 184.890165 
L 173.34995 180.972081 
L 171.71852 176.863326 
L 170.08709 172.580281 
L 168.45566 168.140021 
L 166.82423 163.560248 
L 165.1928 158.859219 
L 163.56137 154.055675 
L 161.929941 149.168767 
L 160.298511 144.217975 
L 158.667081 139.223035 
L 157.035651 134.203861 
L 155.404221 129.180461 
L 153.772791 124.172861 
L 152.141361 119.201021 
L 150.509931 114.284763 
L 148.878502 109.443685 
L 147.247072 104.697083 
L 145.615642 100.06388 
L 143.984212 95.562545 
L 142.352782 91.211022 
L 140.721352 87.026655 
L 139.089922 83.026126 
L 137.458492 79.22538 
L 135.827063 75.639567 
L 134.195633 72.282982 
L 132.564203 69.169002 
L 130.932773 66.310041 
L 129.301343 63.717493 
L 127.669913 61.401693 
L 126.038483 59.371869 
L 124.407053 57.636111 
L 122.775624 56.201338 
L 121.144194 55.073267 
L 119.512764 54.256393 
L 117.881334 53.75397 
L 116.249904 53.568 
L 114.618474 53.699221 
L 112.987044 54.147109 
L 111.355614 54.909875 
L 109.724185 55.984479 
L 108.092755 57.366632 
L 106.461325 59.050825 
L 104.829895 61.030341 
L 103.198465 63.297288 
L 101.567035 65.842626 
L 99.935605 68.656208 
L 98.304175 71.726816 
L 96.672746 75.042207 
L 95.041316 78.589165 
L 93.409886 82.353548 
L 91.778456 86.320349 
L 90.147026 90.473754 
L 88.515596 94.797204 
L 86.884166 99.273465 
L 85.252736 103.884692 
L 83.621307 108.612502 
L 81.989877 113.438048 
L 80.358447 118.342084 
L 78.727017 123.304819 
L 77.095587 128.29951 
L 75.464157 132.807424 
z
" clip-path="url(#p8be91ba3cf)" style="fill: #1f77b4; fill-opacity: 0.2"/>
   </g>
   <g id="matplotlib.axis_1">
    <g id="xtick_1">
     <g id="line2d_1">
      <defs>
       <path id="me2e2825ee4" d="M 0 0 
L 0 3.5 
" style="stroke: #000000; stroke-width: 0.8"/>
      </defs>
      <g>
       <use xlink:href="#me2e2825ee4" x="73.832727" y="307.584" style="stroke: #000000; stroke-width: 0.8"/>
      </g>
     </g>
     <g id="text_1">
      <!-- 0.00 -->
      <g transform="translate(62.699915 322.182437) scale(0.1 -0.1)">
       <defs>
        <path id="DejaVuSans-30" d="M 2034 4250 
Q 1547 4250 1301 3770 
Q 1056 3291 1056 2328 
Q 1056 1369 1301 889 
Q 1547 409 2034 409 
Q 2525 409 2770 889 
Q 3016 1369 3016 2328 
Q 3016 3291 2770 3770 
Q 2525 4250 2034 4250 
z
M 2034 4750 
Q 2819 4750 3233 4129 
Q 3647 3509 3647 2328 
Q 3647 1150 3233 529 
Q 2819 -91 2034 -91 
Q 1250 -91 836 529 
Q 422 1150 422 2328 
Q 422 3509 836 4129 
Q 1250 4750 2034 4750 
z
" transform="scale(0.015625)"/>
        <path id="DejaVuSans-2e" d="M 684 794 
L 1344 794 
L 1344 0 
L 684 0 
L 684 794 
z
" transform="scale(0.015625)"/>
       </defs>
       <use xlink:href="#DejaVuSans-30"/>
       <use xlink:href="#DejaVuSans-2e" x="63.623047"/>
       <use xlink:href="#DejaVuSans-30" x="95.410156"/>
       <use xlink:href="#DejaVuSans-30" x="159.033203"/>
      </g>
     </g>
    </g>
    <g id="xtick_2">
     <g id="line2d_2">
      <g>
       <use xlink:href="#me2e2825ee4" x="114.414545" y="307.584" style="stroke: #000000; stroke-width: 0.8"/>
      </g>
     </g>
     <g id="text_2">
      <!-- 0.25 -->
      <g transform="translate(103.281733 322.182437) scale(0.1 -0.1)">
       <defs>
        <path id="DejaVuSans-32" d="M 1228 531 
L 3431 531 
L 3431 0 
L 469 0 
L 469 531 
Q 828 903 1448 1529 
Q 2069 2156 2228 2338 
Q 2531 2678 2651 2914 
Q 2772 3150 2772 3378 
Q 2772 3750 2511 3984 
Q 2250 4219 1831 4219 
Q 1534 4219 1204 4116 
Q 875 4013 500 3803 
L 500 4441 
Q 881 4594 1212 4672 
Q 1544 4750 1819 4750 
Q 2544 4750 2975 4387 
Q 3406 4025 3406 3419 
Q 3406 3131 3298 2873 
Q 3191 2616 2906 2266 
Q 2828 2175 2409 1742 
Q 1991 1309 1228 531 
z
" transform="scale(0.015625)"/>
        <path id="DejaVuSans-35" d="M 691 4666 
L 3169 4666 
L 3169 4134 
L 1269 4134 
L 1269 2991 
Q 1406 3038 1543 3061 
Q 1681 3084 1819 3084 
Q 2600 3084 3056 2656 
Q 3513 2228 3513 1497 
Q 3513 744 3044 326 
Q 2575 -91 1722 -91 
Q 1428 -91 1123 -41 
Q 819 9 494 109 
L 494 744 
Q 775 591 1075 516 
Q 1375 441 1709 441 
Q 2250 441 2565 725 
Q 2881 1009 2881 1497 
Q 2881 1984 2565 2268 
Q 2250 2553 1709 2553 
Q 1456 2553 1204 2497 
Q 953 2441 691 2322 
L 691 4666 
z
" transform="scale(0.015625)"/>
       </defs>
       <use xlink:href="#DejaVuSans-30"/>
       <use xlink:href="#DejaVuSans-2e" x="63.623047"/>
       <use xlink:href="#DejaVuSans-32" x="95.410156"/>
       <use xlink:href="#DejaVuSans-35" x="159.033203"/>
      </g>
     </g>
    </g>
    <g id="xtick_3">
     <g id="line2d_3">
      <g>
       <use xlink:href="#me2e2825ee4" x="154.996364" y="307.584" style="stroke: #000000; stroke-width: 0.8"/>
      </g>
     </g>
     <g id="text_3">
      <!-- 0.50 -->
      <g transform="translate(143.863551 322.182437) scale(0.1 -0.1)">
       <use xlink:href="#DejaVuSans-30"/>
       <use xlink:href="#DejaVuSans-2e" x="63.623047"/>
       <use xlink:href="#DejaVuSans-35" x="95.410156"/>
       <use xlink:href="#DejaVuSans-30" x="159.033203"/>
      </g>
     </g>
    </g>
    <g id="xtick_4">
     <g id="line2d_4">
      <g>
       <use xlink:href="#me2e2825ee4" x="195.578182" y="307.584" style="stroke: #000000; stroke-width: 0.8"/>
      </g>
     </g>
     <g id="text_4">
      <!-- 0.75 -->
      <g transform="translate(184.445369 322.182437) scale(0.1 -0.1)">
       <defs>
        <path id="DejaVuSans-37" d="M 525 4666 
L 3525 4666 
L 3525 4397 
L 1831 0 
L 1172 0 
L 2766 4134 
L 525 4134 
L 525 4666 
z
" transform="scale(0.015625)"/>
       </defs>
       <use xlink:href="#DejaVuSans-30"/>
       <use xlink:href="#DejaVuSans-2e" x="63.623047"/>
       <use xlink:href="#DejaVuSans-37" x="95.410156"/>
       <use xlink:href="#DejaVuSans-35" x="159.033203"/>
      </g>
     </g>
    </g>
    <g id="xtick_5">
     <g id="line2d_5">
      <g>
       <use xlink:href="#me2e2825ee4" x="236.16" y="307.584" style="stroke: #000000; stroke-width: 0.8"/>
      </g>
     </g>
     <g id="text_5">
      <!-- 1.00 -->
      <g transform="translate(225.027187 322.182437) scale(0.1 -0.1)">
       <defs>
        <path id="DejaVuSans-31" d="M 794 531 
L 1825 531 
L 1825 4091 
L 703 3866 
L 703 4441 
L 1819 4666 
L 2450 4666 
L 2450 531 
L 3481 531 
L 3481 0 
L 794 0 
L 794 531 
z
" transform="scale(0.015625)"/>
       </defs>
       <use xlink:href="#DejaVuSans-31"/>
       <use xlink:href="#DejaVuSans-2e" x="63.623047"/>
       <use xlink:href="#DejaVuSans-30" x="95.410156"/>
       <use xlink:href="#DejaVuSans-30" x="159.033203"/>
      </g>
     </g>
    </g>
    <g id="xtick_6">
     <g id="line2d_6">
      <g>
       <use xlink:href="#me2e2825ee4" x="276.741818" y="307.584" style="stroke: #000000; stroke-width: 0.8"/>
      </g>
     </g>
     <g id="text_6">
      <!-- 1.25 -->
      <g transform="translate(265.609006 322.182437) scale(0.1 -0.1)">
       <use xlink:href="#DejaVuSans-31"/>
       <use xlink:href="#DejaVuSans-2e" x="63.623047"/>
       <use xlink:href="#DejaVuSans-32" x="95.410156"/>
       <use xlink:href="#DejaVuSans-35" x="159.033203"/>
      </g>
     </g>
    </g>
    <g id="xtick_7">
     <g id="line2d_7">
      <g>
       <use xlink:href="#me2e2825ee4" x="317.323636" y="307.584" style="stroke: #000000; stroke-width: 0.8"/>
      </g>
     </g>
     <g id="text_7">
      <!-- 1.50 -->
      <g transform="translate(306.190824 322.182437) scale(0.1 -0.1)">
       <use xlink:href="#DejaVuSans-31"/>
       <use xlink:href="#DejaVuSans-2e" x="63.623047"/>
       <use xlink:href="#DejaVuSans-35" x="95.410156"/>
       <use xlink:href="#DejaVuSans-30" x="159.033203"/>
      </g>
     </g>
    </g>
    <g id="xtick_8">
     <g id="line2d_8">
      <g>
       <use xlink:href="#me2e2825ee4" x="357.905455" y="307.584" style="stroke: #000000; stroke-width: 0.8"/>
      </g>
     </g>
     <g id="text_8">
      <!-- 1.75 -->
      <g transform="translate(346.772642 322.182437) scale(0.1 -0.1)">
       <use xlink:href="#DejaVuSans-31"/>
       <use xlink:href="#DejaVuSans-2e" x="63.623047"/>
       <use xlink:href="#DejaVuSans-37" x="95.410156"/>
       <use xlink:href="#DejaVuSans-35" x="159.033203"/>
      </g>
     </g>
    </g>
    <g id="xtick_9">
     <g id="line2d_9">
      <g>
       <use xlink:href="#me2e2825ee4" x="398.487273" y="307.584" style="stroke: #000000; stroke-width: 0.8"/>
      </g>
     </g>
     <g id="text_9">
      <!-- 2.00 -->
      <g transform="translate(387.35446 322.182437) scale(0.1 -0.1)">
       <use xlink:href="#DejaVuSans-32"/>
       <use xlink:href="#DejaVuSans-2e" x="63.623047"/>
       <use xlink:href="#DejaVuSans-30" x="95.410156"/>
       <use xlink:href="#DejaVuSans-30" x="159.033203"/>
      </g>
     </g>
    </g>
    <g id="text_10">
     <!-- t -->
     <g transform="translate(234.199844 335.860562) scale(0.1 -0.1)">
      <defs>
       <path id="DejaVuSans-74" d="M 1172 4494 
L 1172 3500 
L 2356 3500 
L 2356 3053 
L 1172 3053 
L 1172 1153 
Q 1172 725 1289 603 
Q 1406 481 1766 481 
L 2356 481 
L 2356 0 
L 1766 0 
Q 1100 0 847 248 
Q 594 497 594 1153 
L 594 3053 
L 172 3053 
L 172 3500 
L 594 3500 
L 594 4494 
L 1172 4494 
z
" transform="scale(0.015625)"/>
      </defs>
      <use xlink:href="#DejaVuSans-74"/>
     </g>
    </g>
   </g>
   <g id="matplotlib.axis_2">
    <g id="ytick_1">
     <g id="line2d_10">
      <defs>
       <path id="m3c4fd49a32" d="M 0 0 
L -3.5 0 
" style="stroke: #000000; stroke-width: 0.8"/>
      </defs>
      <g>
       <use xlink:href="#m3c4fd49a32" x="57.6" y="288.777627" style="stroke: #000000; stroke-width: 0.8"/>
      </g>
     </g>
     <g id="text_11">
      <!-- −1.5 -->
      <g transform="translate(26.317187 292.576845) scale(0.1 -0.1)">
       <defs>
        <path id="DejaVuSans-2212" d="M 678 2272 
L 4684 2272 
L 4684 1741 
L 678 1741 
L 678 2272 
z
" transform="scale(0.015625)"/>
       </defs>
       <use xlink:href="#DejaVuSans-2212"/>
       <use xlink:href="#DejaVuSans-31" x="83.789062"/>
       <use xlink:href="#DejaVuSans-2e" x="147.412109"/>
       <use xlink:href="#DejaVuSans-35" x="179.199219"/>
      </g>
     </g>
    </g>
    <g id="ytick_2">
     <g id="line2d_11">
      <g>
       <use xlink:href="#m3c4fd49a32" x="57.6" y="248.992671" style="stroke: #000000; stroke-width: 0.8"/>
      </g>
     </g>
     <g id="text_12">
      <!-- −1.0 -->
      <g transform="translate(26.317187 252.791889) scale(0.1 -0.1)">
       <use xlink:href="#DejaVuSans-2212"/>
       <use xlink:href="#DejaVuSans-31" x="83.789062"/>
       <use xlink:href="#DejaVuSans-2e" x="147.412109"/>
       <use xlink:href="#DejaVuSans-30" x="179.199219"/>
      </g>
     </g>
    </g>
    <g id="ytick_3">
     <g id="line2d_12">
      <g>
       <use xlink:href="#m3c4fd49a32" x="57.6" y="209.207715" style="stroke: #000000; stroke-width: 0.8"/>
      </g>
     </g>
     <g id="text_13">
      <!-- −0.5 -->
      <g transform="translate(26.317187 213.006934) scale(0.1 -0.1)">
       <use xlink:href="#DejaVuSans-2212"/>
       <use xlink:href="#DejaVuSans-30" x="83.789062"/>
       <use xlink:href="#DejaVuSans-2e" x="147.412109"/>
       <use xlink:href="#DejaVuSans-35" x="179.199219"/>
      </g>
     </g>
    </g>
    <g id="ytick_4">
     <g id="line2d_13">
      <g>
       <use xlink:href="#m3c4fd49a32" x="57.6" y="169.422759" style="stroke: #000000; stroke-width: 0.8"/>
      </g>
     </g>
     <g id="text_14">
      <!-- 0.0 -->
      <g transform="translate(34.696875 173.221978) scale(0.1 -0.1)">
       <use xlink:href="#DejaVuSans-30"/>
       <use xlink:href="#DejaVuSans-2e" x="63.623047"/>
       <use xlink:href="#DejaVuSans-30" x="95.410156"/>
      </g>
     </g>
    </g>
    <g id="ytick_5">
     <g id="line2d_14">
      <g>
       <use xlink:href="#m3c4fd49a32" x="57.6" y="129.637803" style="stroke: #000000; stroke-width: 0.8"/>
      </g>
     </g>
     <g id="text_15">
      <!-- 0.5 -->
      <g transform="translate(34.696875 133.437022) scale(0.1 -0.1)">
       <use xlink:href="#DejaVuSans-30"/>
       <use xlink:href="#DejaVuSans-2e" x="63.623047"/>
       <use xlink:href="#DejaVuSans-35" x="95.410156"/>
      </g>
     </g>
    </g>
    <g id="ytick_6">
     <g id="line2d_15">
      <g>
       <use xlink:href="#m3c4fd49a32" x="57.6" y="89.852847" style="stroke: #000000; stroke-width: 0.8"/>
      </g>
     </g>
     <g id="text_16">
      <!-- 1.0 -->
      <g transform="translate(34.696875 93.652066) scale(0.1 -0.1)">
       <use xlink:href="#DejaVuSans-31"/>
       <use xlink:href="#DejaVuSans-2e" x="63.623047"/>
       <use xlink:href="#DejaVuSans-30" x="95.410156"/>
      </g>
     </g>
    </g>
    <g id="ytick_7">
     <g id="line2d_16">
      <g>
       <use xlink:href="#m3c4fd49a32" x="57.6" y="50.067891" style="stroke: #000000; stroke-width: 0.8"/>
      </g>
     </g>
     <g id="text_17">
      <!-- 1.5 -->
      <g transform="translate(34.696875 53.86711) scale(0.1 -0.1)">
       <use xlink:href="#DejaVuSans-31"/>
       <use xlink:href="#DejaVuSans-2e" x="63.623047"/>
       <use xlink:href="#DejaVuSans-35" x="95.410156"/>
      </g>
     </g>
    </g>
    <g id="text_18">
     <!-- x(t) -->
     <g transform="translate(20.2375 183.349094) rotate(-90) scale(0.1 -0.1)">
      <defs>
       <path id="DejaVuSans-78" d="M 3513 3500 
L 2247 1797 
L 3578 0 
L 2900 0 
L 1881 1375 
L 863 0 
L 184 0 
L 1544 1831 
L 300 3500 
L 978 3500 
L 1906 2253 
L 2834 3500 
L 3513 3500 
z
" transform="scale(0.015625)"/>
       <path id="DejaVuSans-28" d="M 1984 4856 
Q 1566 4138 1362 3434 
Q 1159 2731 1159 2009 
Q 1159 1288 1364 580 
Q 1569 -128 1984 -844 
L 1484 -844 
Q 1016 -109 783 600 
Q 550 1309 550 2009 
Q 550 2706 781 3412 
Q 1013 4119 1484 4856 
L 1984 4856 
z
" transform="scale(0.015625)"/>
       <path id="DejaVuSans-29" d="M 513 4856 
L 1013 4856 
Q 1481 4119 1714 3412 
Q 1947 2706 1947 2009 
Q 1947 1309 1714 600 
Q 1481 -109 1013 -844 
L 513 -844 
Q 928 -128 1133 580 
Q 1338 1288 1338 2009 
Q 1338 2731 1133 3434 
Q 928 4138 513 4856 
z
" transform="scale(0.015625)"/>
      </defs>
      <use xlink:href="#DejaVuSans-78"/>
      <use xlink:href="#DejaVuSans-28" x="59.179688"/>
      <use xlink:href="#DejaVuSans-74" x="98.193359"/>
      <use xlink:href="#DejaVuSans-29" x="137.402344"/>
     </g>
    </g>
   </g>
   <g id="line2d_17">
    <defs>
     <path id="m348fc22558" d="M 0 3 
C 0.795609 3 1.55874 2.683901 2.12132 2.12132 
C 2.683901 1.55874 3 0.795609 3 0 
C 3 -0.795609 2.683901 -1.55874 2.12132 -2.12132 
C 1.55874 -2.683901 0.795609 -3 0 -3 
C -0.795609 -3 -1.55874 -2.683901 -2.12132 -2.12132 
C -2.683901 -1.55874 -3 -0.795609 -3 0 
C -3 0.795609 -2.683901 1.55874 -2.12132 2.12132 
C -1.55874 2.683901 -0.795609 3 0 3 
z
" style="stroke: #ff0000"/>
    </defs>
    <g clip-path="url(#p8be91ba3cf)">
     <use xlink:href="#m348fc22558" x="73.832727" y="172.348727" style="fill: #ff0000; stroke: #ff0000"/>
     <use xlink:href="#m348fc22558" x="75.464157" y="169.54137" style="fill: #ff0000; stroke: #ff0000"/>
     <use xlink:href="#m348fc22558" x="77.095587" y="147.930423" style="fill: #ff0000; stroke: #ff0000"/>
     <use xlink:href="#m348fc22558" x="78.727017" y="160.075728" style="fill: #ff0000; stroke: #ff0000"/>
     <use xlink:href="#m348fc22558" x="80.358447" y="142.519206" style="fill: #ff0000; stroke: #ff0000"/>
     <use xlink:href="#m348fc22558" x="81.989877" y="132.992789" style="fill: #ff0000; stroke: #ff0000"/>
     <use xlink:href="#m348fc22558" x="83.621307" y="177.20378" style="fill: #ff0000; stroke: #ff0000"/>
     <use xlink:href="#m348fc22558" x="85.252736" y="156.683673" style="fill: #ff0000; stroke: #ff0000"/>
     <use xlink:href="#m348fc22558" x="86.884166" y="129.761793" style="fill: #ff0000; stroke: #ff0000"/>
     <use xlink:href="#m348fc22558" x="88.515596" y="108.510754" style="fill: #ff0000; stroke: #ff0000"/>
     <use xlink:href="#m348fc22558" x="90.147026" y="115.280439" style="fill: #ff0000; stroke: #ff0000"/>
     <use xlink:href="#m348fc22558" x="91.778456" y="114.200521" style="fill: #ff0000; stroke: #ff0000"/>
     <use xlink:href="#m348fc22558" x="93.409886" y="105.327016" style="fill: #ff0000; stroke: #ff0000"/>
     <use xlink:href="#m348fc22558" x="95.041316" y="107.378964" style="fill: #ff0000; stroke: #ff0000"/>
     <use xlink:href="#m348fc22558" x="96.672746" y="122.170844" style="fill: #ff0000; stroke: #ff0000"/>
     <use xlink:href="#m348fc22558" x="98.304175" y="95.582462" style="fill: #ff0000; stroke: #ff0000"/>
     <use xlink:href="#m348fc22558" x="99.935605" y="63.381098" style="fill: #ff0000; stroke: #ff0000"/>
     <use xlink:href="#m348fc22558" x="101.567035" y="73.116968" style="fill: #ff0000; stroke: #ff0000"/>
     <use xlink:href="#m348fc22558" x="103.198465" y="107.43341" style="fill: #ff0000; stroke: #ff0000"/>
     <use xlink:href="#m348fc22558" x="104.829895" y="83.620116" style="fill: #ff0000; stroke: #ff0000"/>
     <use xlink:href="#m348fc22558" x="106.461325" y="104.140087" style="fill: #ff0000; stroke: #ff0000"/>
     <use xlink:href="#m348fc22558" x="108.092755" y="83.209699" style="fill: #ff0000; stroke: #ff0000"/>
     <use xlink:href="#m348fc22558" x="109.724185" y="99.60831" style="fill: #ff0000; stroke: #ff0000"/>
     <use xlink:href="#m348fc22558" x="111.355614" y="84.479672" style="fill: #ff0000; stroke: #ff0000"/>
     <use xlink:href="#m348fc22558" x="112.987044" y="91.097703" style="fill: #ff0000; stroke: #ff0000"/>
     <use xlink:href="#m348fc22558" x="114.618474" y="89.67166" style="fill: #ff0000; stroke: #ff0000"/>
     <use xlink:href="#m348fc22558" x="116.249904" y="108.916841" style="fill: #ff0000; stroke: #ff0000"/>
     <use xlink:href="#m348fc22558" x="117.881334" y="117.795456" style="fill: #ff0000; stroke: #ff0000"/>
     <use xlink:href="#m348fc22558" x="119.512764" y="118.41718" style="fill: #ff0000; stroke: #ff0000"/>
     <use xlink:href="#m348fc22558" x="121.144194" y="80.046961" style="fill: #ff0000; stroke: #ff0000"/>
     <use xlink:href="#m348fc22558" x="122.775624" y="92.116036" style="fill: #ff0000; stroke: #ff0000"/>
     <use xlink:href="#m348fc22558" x="124.407053" y="111.34071" style="fill: #ff0000; stroke: #ff0000"/>
     <use xlink:href="#m348fc22558" x="126.038483" y="102.145688" style="fill: #ff0000; stroke: #ff0000"/>
     <use xlink:href="#m348fc22558" x="127.669913" y="82.53008" style="fill: #ff0000; stroke: #ff0000"/>
     <use xlink:href="#m348fc22558" x="129.301343" y="101.868055" style="fill: #ff0000; stroke: #ff0000"/>
     <use xlink:href="#m348fc22558" x="130.932773" y="119.798073" style="fill: #ff0000; stroke: #ff0000"/>
     <use xlink:href="#m348fc22558" x="132.564203" y="86.431026" style="fill: #ff0000; stroke: #ff0000"/>
     <use xlink:href="#m348fc22558" x="134.195633" y="77.0979" style="fill: #ff0000; stroke: #ff0000"/>
     <use xlink:href="#m348fc22558" x="135.827063" y="131.793118" style="fill: #ff0000; stroke: #ff0000"/>
     <use xlink:href="#m348fc22558" x="137.458492" y="127.163253" style="fill: #ff0000; stroke: #ff0000"/>
     <use xlink:href="#m348fc22558" x="139.089922" y="120.16893" style="fill: #ff0000; stroke: #ff0000"/>
     <use xlink:href="#m348fc22558" x="140.721352" y="104.181539" style="fill: #ff0000; stroke: #ff0000"/>
     <use xlink:href="#m348fc22558" x="142.352782" y="130.935824" style="fill: #ff0000; stroke: #ff0000"/>
     <use xlink:href="#m348fc22558" x="143.984212" y="120.130192" style="fill: #ff0000; stroke: #ff0000"/>
     <use xlink:href="#m348fc22558" x="145.615642" y="140.512027" style="fill: #ff0000; stroke: #ff0000"/>
     <use xlink:href="#m348fc22558" x="147.247072" y="147.822755" style="fill: #ff0000; stroke: #ff0000"/>
     <use xlink:href="#m348fc22558" x="148.878502" y="145.219926" style="fill: #ff0000; stroke: #ff0000"/>
     <use xlink:href="#m348fc22558" x="150.509931" y="140.259532" style="fill: #ff0000; stroke: #ff0000"/>
     <use xlink:href="#m348fc22558" x="152.141361" y="160.609318" style="fill: #ff0000; stroke: #ff0000"/>
     <use xlink:href="#m348fc22558" x="153.772791" y="174.761093" style="fill: #ff0000; stroke: #ff0000"/>
     <use xlink:href="#m348fc22558" x="155.404221" y="149.266126" style="fill: #ff0000; stroke: #ff0000"/>
     <use xlink:href="#m348fc22558" x="157.035651" y="188.042892" style="fill: #ff0000; stroke: #ff0000"/>
     <use xlink:href="#m348fc22558" x="158.667081" y="184.82726" style="fill: #ff0000; stroke: #ff0000"/>
     <use xlink:href="#m348fc22558" x="160.298511" y="192.544155" style="fill: #ff0000; stroke: #ff0000"/>
     <use xlink:href="#m348fc22558" x="161.929941" y="198.594152" style="fill: #ff0000; stroke: #ff0000"/>
     <use xlink:href="#m348fc22558" x="163.56137" y="227.54347" style="fill: #ff0000; stroke: #ff0000"/>
     <use xlink:href="#m348fc22558" x="165.1928" y="201.794133" style="fill: #ff0000; stroke: #ff0000"/>
     <use xlink:href="#m348fc22558" x="166.82423" y="201.562287" style="fill: #ff0000; stroke: #ff0000"/>
     <use xlink:href="#m348fc22558" x="168.45566" y="217.216231" style="fill: #ff0000; stroke: #ff0000"/>
     <use xlink:href="#m348fc22558" x="170.08709" y="236.227494" style="fill: #ff0000; stroke: #ff0000"/>
     <use xlink:href="#m348fc22558" x="171.71852" y="226.043671" style="fill: #ff0000; stroke: #ff0000"/>
     <use xlink:href="#m348fc22558" x="173.34995" y="234.218665" style="fill: #ff0000; stroke: #ff0000"/>
     <use xlink:href="#m348fc22558" x="174.98138" y="207.397084" style="fill: #ff0000; stroke: #ff0000"/>
     <use xlink:href="#m348fc22558" x="176.61281" y="251.254518" style="fill: #ff0000; stroke: #ff0000"/>
     <use xlink:href="#m348fc22558" x="178.244239" y="238.237573" style="fill: #ff0000; stroke: #ff0000"/>
     <use xlink:href="#m348fc22558" x="179.875669" y="192.740432" style="fill: #ff0000; stroke: #ff0000"/>
     <use xlink:href="#m348fc22558" x="181.507099" y="216.44762" style="fill: #ff0000; stroke: #ff0000"/>
     <use xlink:href="#m348fc22558" x="183.138529" y="224.50944" style="fill: #ff0000; stroke: #ff0000"/>
     <use xlink:href="#m348fc22558" x="184.769959" y="230.870386" style="fill: #ff0000; stroke: #ff0000"/>
     <use xlink:href="#m348fc22558" x="186.401389" y="259.926561" style="fill: #ff0000; stroke: #ff0000"/>
     <use xlink:href="#m348fc22558" x="188.032819" y="247.644267" style="fill: #ff0000; stroke: #ff0000"/>
     <use xlink:href="#m348fc22558" x="189.664249" y="231.321275" style="fill: #ff0000; stroke: #ff0000"/>
     <use xlink:href="#m348fc22558" x="191.295678" y="237.474966" style="fill: #ff0000; stroke: #ff0000"/>
     <use xlink:href="#m348fc22558" x="192.927108" y="291.512215" style="fill: #ff0000; stroke: #ff0000"/>
     <use xlink:href="#m348fc22558" x="194.558538" y="246.820711" style="fill: #ff0000; stroke: #ff0000"/>
     <use xlink:href="#m348fc22558" x="196.189968" y="251.03932" style="fill: #ff0000; stroke: #ff0000"/>
     <use xlink:href="#m348fc22558" x="197.821398" y="257.41644" style="fill: #ff0000; stroke: #ff0000"/>
     <use xlink:href="#m348fc22558" x="199.452828" y="213.276428" style="fill: #ff0000; stroke: #ff0000"/>
     <use xlink:href="#m348fc22558" x="201.084258" y="246.906456" style="fill: #ff0000; stroke: #ff0000"/>
     <use xlink:href="#m348fc22558" x="202.715688" y="230.980479" style="fill: #ff0000; stroke: #ff0000"/>
     <use xlink:href="#m348fc22558" x="204.347117" y="271.420253" style="fill: #ff0000; stroke: #ff0000"/>
     <use xlink:href="#m348fc22558" x="205.978547" y="240.024519" style="fill: #ff0000; stroke: #ff0000"/>
     <use xlink:href="#m348fc22558" x="207.609977" y="248.385523" style="fill: #ff0000; stroke: #ff0000"/>
     <use xlink:href="#m348fc22558" x="209.241407" y="219.440722" style="fill: #ff0000; stroke: #ff0000"/>
     <use xlink:href="#m348fc22558" x="210.872837" y="228.781681" style="fill: #ff0000; stroke: #ff0000"/>
     <use xlink:href="#m348fc22558" x="212.504267" y="212.898328" style="fill: #ff0000; stroke: #ff0000"/>
     <use xlink:href="#m348fc22558" x="214.135697" y="237.011411" style="fill: #ff0000; stroke: #ff0000"/>
     <use xlink:href="#m348fc22558" x="215.767127" y="206.101189" style="fill: #ff0000; stroke: #ff0000"/>
     <use xlink:href="#m348fc22558" x="217.398556" y="209.54881" style="fill: #ff0000; stroke: #ff0000"/>
     <use xlink:href="#m348fc22558" x="219.029986" y="196.308984" style="fill: #ff0000; stroke: #ff0000"/>
     <use xlink:href="#m348fc22558" x="220.661416" y="236.258476" style="fill: #ff0000; stroke: #ff0000"/>
     <use xlink:href="#m348fc22558" x="222.292846" y="241.979217" style="fill: #ff0000; stroke: #ff0000"/>
     <use xlink:href="#m348fc22558" x="223.924276" y="205.03542" style="fill: #ff0000; stroke: #ff0000"/>
     <use xlink:href="#m348fc22558" x="225.555706" y="211.066519" style="fill: #ff0000; stroke: #ff0000"/>
     <use xlink:href="#m348fc22558" x="227.187136" y="200.488795" style="fill: #ff0000; stroke: #ff0000"/>
     <use xlink:href="#m348fc22558" x="228.818566" y="170.708657" style="fill: #ff0000; stroke: #ff0000"/>
     <use xlink:href="#m348fc22558" x="230.449995" y="170.028041" style="fill: #ff0000; stroke: #ff0000"/>
     <use xlink:href="#m348fc22558" x="232.081425" y="205.013002" style="fill: #ff0000; stroke: #ff0000"/>
     <use xlink:href="#m348fc22558" x="233.712855" y="156.922295" style="fill: #ff0000; stroke: #ff0000"/>
     <use xlink:href="#m348fc22558" x="235.344285" y="160.409186" style="fill: #ff0000; stroke: #ff0000"/>
     <use xlink:href="#m348fc22558" x="236.975715" y="158.797476" style="fill: #ff0000; stroke: #ff0000"/>
     <use xlink:href="#m348fc22558" x="238.607145" y="160.146518" style="fill: #ff0000; stroke: #ff0000"/>
     <use xlink:href="#m348fc22558" x="240.238575" y="115.69558" style="fill: #ff0000; stroke: #ff0000"/>
     <use xlink:href="#m348fc22558" x="241.870005" y="167.026876" style="fill: #ff0000; stroke: #ff0000"/>
     <use xlink:href="#m348fc22558" x="243.501434" y="153.385081" style="fill: #ff0000; stroke: #ff0000"/>
     <use xlink:href="#m348fc22558" x="245.132864" y="162.172327" style="fill: #ff0000; stroke: #ff0000"/>
     <use xlink:href="#m348fc22558" x="246.764294" y="164.39686" style="fill: #ff0000; stroke: #ff0000"/>
     <use xlink:href="#m348fc22558" x="248.395724" y="142.306326" style="fill: #ff0000; stroke: #ff0000"/>
     <use xlink:href="#m348fc22558" x="250.027154" y="153.547874" style="fill: #ff0000; stroke: #ff0000"/>
     <use xlink:href="#m348fc22558" x="251.658584" y="161.158461" style="fill: #ff0000; stroke: #ff0000"/>
     <use xlink:href="#m348fc22558" x="253.290014" y="116.374904" style="fill: #ff0000; stroke: #ff0000"/>
     <use xlink:href="#m348fc22558" x="254.921444" y="101.908764" style="fill: #ff0000; stroke: #ff0000"/>
     <use xlink:href="#m348fc22558" x="256.552873" y="132.286988" style="fill: #ff0000; stroke: #ff0000"/>
     <use xlink:href="#m348fc22558" x="258.184303" y="145.02478" style="fill: #ff0000; stroke: #ff0000"/>
     <use xlink:href="#m348fc22558" x="259.815733" y="96.679813" style="fill: #ff0000; stroke: #ff0000"/>
     <use xlink:href="#m348fc22558" x="261.447163" y="82.106377" style="fill: #ff0000; stroke: #ff0000"/>
     <use xlink:href="#m348fc22558" x="263.078593" y="111.507339" style="fill: #ff0000; stroke: #ff0000"/>
     <use xlink:href="#m348fc22558" x="264.710023" y="75.733517" style="fill: #ff0000; stroke: #ff0000"/>
     <use xlink:href="#m348fc22558" x="266.341453" y="88.542452" style="fill: #ff0000; stroke: #ff0000"/>
     <use xlink:href="#m348fc22558" x="267.972883" y="105.71928" style="fill: #ff0000; stroke: #ff0000"/>
     <use xlink:href="#m348fc22558" x="269.604312" y="94.72827" style="fill: #ff0000; stroke: #ff0000"/>
     <use xlink:href="#m348fc22558" x="271.235742" y="65.125935" style="fill: #ff0000; stroke: #ff0000"/>
     <use xlink:href="#m348fc22558" x="272.867172" y="96.580377" style="fill: #ff0000; stroke: #ff0000"/>
     <use xlink:href="#m348fc22558" x="274.498602" y="117.39666" style="fill: #ff0000; stroke: #ff0000"/>
     <use xlink:href="#m348fc22558" x="276.130032" y="103.187606" style="fill: #ff0000; stroke: #ff0000"/>
     <use xlink:href="#m348fc22558" x="277.761462" y="85.346337" style="fill: #ff0000; stroke: #ff0000"/>
     <use xlink:href="#m348fc22558" x="279.392892" y="99.829589" style="fill: #ff0000; stroke: #ff0000"/>
     <use xlink:href="#m348fc22558" x="281.024322" y="84.927608" style="fill: #ff0000; stroke: #ff0000"/>
     <use xlink:href="#m348fc22558" x="282.655751" y="112.813351" style="fill: #ff0000; stroke: #ff0000"/>
     <use xlink:href="#m348fc22558" x="284.287181" y="81.595603" style="fill: #ff0000; stroke: #ff0000"/>
     <use xlink:href="#m348fc22558" x="285.918611" y="93.01867" style="fill: #ff0000; stroke: #ff0000"/>
     <use xlink:href="#m348fc22558" x="287.550041" y="102.716334" style="fill: #ff0000; stroke: #ff0000"/>
     <use xlink:href="#m348fc22558" x="289.181471" y="109.838838" style="fill: #ff0000; stroke: #ff0000"/>
     <use xlink:href="#m348fc22558" x="290.812901" y="122.722676" style="fill: #ff0000; stroke: #ff0000"/>
     <use xlink:href="#m348fc22558" x="292.444331" y="64.978145" style="fill: #ff0000; stroke: #ff0000"/>
     <use xlink:href="#m348fc22558" x="294.075761" y="77.885696" style="fill: #ff0000; stroke: #ff0000"/>
     <use xlink:href="#m348fc22558" x="295.70719" y="122.358169" style="fill: #ff0000; stroke: #ff0000"/>
     <use xlink:href="#m348fc22558" x="297.33862" y="144.09546" style="fill: #ff0000; stroke: #ff0000"/>
     <use xlink:href="#m348fc22558" x="298.97005" y="100.065954" style="fill: #ff0000; stroke: #ff0000"/>
     <use xlink:href="#m348fc22558" x="300.60148" y="132.523358" style="fill: #ff0000; stroke: #ff0000"/>
     <use xlink:href="#m348fc22558" x="302.23291" y="132.096223" style="fill: #ff0000; stroke: #ff0000"/>
     <use xlink:href="#m348fc22558" x="303.86434" y="133.84885" style="fill: #ff0000; stroke: #ff0000"/>
     <use xlink:href="#m348fc22558" x="305.49577" y="150.372972" style="fill: #ff0000; stroke: #ff0000"/>
     <use xlink:href="#m348fc22558" x="307.1272" y="127.128493" style="fill: #ff0000; stroke: #ff0000"/>
     <use xlink:href="#m348fc22558" x="308.75863" y="149.038971" style="fill: #ff0000; stroke: #ff0000"/>
     <use xlink:href="#m348fc22558" x="310.390059" y="126.54453" style="fill: #ff0000; stroke: #ff0000"/>
     <use xlink:href="#m348fc22558" x="312.021489" y="119.230715" style="fill: #ff0000; stroke: #ff0000"/>
     <use xlink:href="#m348fc22558" x="313.652919" y="174.185872" style="fill: #ff0000; stroke: #ff0000"/>
     <use xlink:href="#m348fc22558" x="315.284349" y="175.234156" style="fill: #ff0000; stroke: #ff0000"/>
     <use xlink:href="#m348fc22558" x="316.915779" y="147.734256" style="fill: #ff0000; stroke: #ff0000"/>
     <use xlink:href="#m348fc22558" x="318.547209" y="153.715325" style="fill: #ff0000; stroke: #ff0000"/>
     <use xlink:href="#m348fc22558" x="320.178639" y="184.256775" style="fill: #ff0000; stroke: #ff0000"/>
     <use xlink:href="#m348fc22558" x="321.810069" y="179.06087" style="fill: #ff0000; stroke: #ff0000"/>
     <use xlink:href="#m348fc22558" x="323.441498" y="215.27785" style="fill: #ff0000; stroke: #ff0000"/>
     <use xlink:href="#m348fc22558" x="325.072928" y="213.312438" style="fill: #ff0000; stroke: #ff0000"/>
     <use xlink:href="#m348fc22558" x="326.704358" y="194.504356" style="fill: #ff0000; stroke: #ff0000"/>
     <use xlink:href="#m348fc22558" x="328.335788" y="230.159445" style="fill: #ff0000; stroke: #ff0000"/>
     <use xlink:href="#m348fc22558" x="329.967218" y="211.305626" style="fill: #ff0000; stroke: #ff0000"/>
     <use xlink:href="#m348fc22558" x="331.598648" y="221.373763" style="fill: #ff0000; stroke: #ff0000"/>
     <use xlink:href="#m348fc22558" x="333.230078" y="210.558745" style="fill: #ff0000; stroke: #ff0000"/>
     <use xlink:href="#m348fc22558" x="334.861508" y="228.617364" style="fill: #ff0000; stroke: #ff0000"/>
     <use xlink:href="#m348fc22558" x="336.492937" y="191.663382" style="fill: #ff0000; stroke: #ff0000"/>
     <use xlink:href="#m348fc22558" x="338.124367" y="218.656308" style="fill: #ff0000; stroke: #ff0000"/>
     <use xlink:href="#m348fc22558" x="339.755797" y="216.652868" style="fill: #ff0000; stroke: #ff0000"/>
     <use xlink:href="#m348fc22558" x="341.387227" y="237.719411" style="fill: #ff0000; stroke: #ff0000"/>
     <use xlink:href="#m348fc22558" x="343.018657" y="242.52384" style="fill: #ff0000; stroke: #ff0000"/>
     <use xlink:href="#m348fc22558" x="344.650087" y="227.448546" style="fill: #ff0000; stroke: #ff0000"/>
     <use xlink:href="#m348fc22558" x="346.281517" y="244.6069" style="fill: #ff0000; stroke: #ff0000"/>
     <use xlink:href="#m348fc22558" x="347.912947" y="260.905489" style="fill: #ff0000; stroke: #ff0000"/>
     <use xlink:href="#m348fc22558" x="349.544376" y="259.939693" style="fill: #ff0000; stroke: #ff0000"/>
     <use xlink:href="#m348fc22558" x="351.175806" y="268.359887" style="fill: #ff0000; stroke: #ff0000"/>
     <use xlink:href="#m348fc22558" x="352.807236" y="257.782097" style="fill: #ff0000; stroke: #ff0000"/>
     <use xlink:href="#m348fc22558" x="354.438666" y="246.963131" style="fill: #ff0000; stroke: #ff0000"/>
     <use xlink:href="#m348fc22558" x="356.070096" y="246.882066" style="fill: #ff0000; stroke: #ff0000"/>
     <use xlink:href="#m348fc22558" x="357.701526" y="254.330836" style="fill: #ff0000; stroke: #ff0000"/>
     <use xlink:href="#m348fc22558" x="359.332956" y="240.81488" style="fill: #ff0000; stroke: #ff0000"/>
     <use xlink:href="#m348fc22558" x="360.964386" y="236.980091" style="fill: #ff0000; stroke: #ff0000"/>
     <use xlink:href="#m348fc22558" x="362.595815" y="250.558774" style="fill: #ff0000; stroke: #ff0000"/>
     <use xlink:href="#m348fc22558" x="364.227245" y="261.78804" style="fill: #ff0000; stroke: #ff0000"/>
     <use xlink:href="#m348fc22558" x="365.858675" y="242.650371" style="fill: #ff0000; stroke: #ff0000"/>
     <use xlink:href="#m348fc22558" x="367.490105" y="235.718835" style="fill: #ff0000; stroke: #ff0000"/>
     <use xlink:href="#m348fc22558" x="369.121535" y="239.801214" style="fill: #ff0000; stroke: #ff0000"/>
     <use xlink:href="#m348fc22558" x="370.752965" y="218.264209" style="fill: #ff0000; stroke: #ff0000"/>
     <use xlink:href="#m348fc22558" x="372.384395" y="252.653179" style="fill: #ff0000; stroke: #ff0000"/>
     <use xlink:href="#m348fc22558" x="374.015825" y="204.531004" style="fill: #ff0000; stroke: #ff0000"/>
     <use xlink:href="#m348fc22558" x="375.647254" y="240.161726" style="fill: #ff0000; stroke: #ff0000"/>
     <use xlink:href="#m348fc22558" x="377.278684" y="211.034182" style="fill: #ff0000; stroke: #ff0000"/>
     <use xlink:href="#m348fc22558" x="378.910114" y="247.352685" style="fill: #ff0000; stroke: #ff0000"/>
     <use xlink:href="#m348fc22558" x="380.541544" y="235.175898" style="fill: #ff0000; stroke: #ff0000"/>
     <use xlink:href="#m348fc22558" x="382.172974" y="234.030234" style="fill: #ff0000; stroke: #ff0000"/>
     <use xlink:href="#m348fc22558" x="383.804404" y="199.021203" style="fill: #ff0000; stroke: #ff0000"/>
     <use xlink:href="#m348fc22558" x="385.435834" y="197.153625" style="fill: #ff0000; stroke: #ff0000"/>
     <use xlink:href="#m348fc22558" x="387.067264" y="202.601161" style="fill: #ff0000; stroke: #ff0000"/>
     <use xlink:href="#m348fc22558" x="388.698693" y="220.990034" style="fill: #ff0000; stroke: #ff0000"/>
     <use xlink:href="#m348fc22558" x="390.330123" y="200.525866" style="fill: #ff0000; stroke: #ff0000"/>
     <use xlink:href="#m348fc22558" x="391.961553" y="185.658848" style="fill: #ff0000; stroke: #ff0000"/>
     <use xlink:href="#m348fc22558" x="393.592983" y="153.46003" style="fill: #ff0000; stroke: #ff0000"/>
     <use xlink:href="#m348fc22558" x="395.224413" y="184.829877" style="fill: #ff0000; stroke: #ff0000"/>
     <use xlink:href="#m348fc22558" x="396.855843" y="174.89834" style="fill: #ff0000; stroke: #ff0000"/>
     <use xlink:href="#m348fc22558" x="398.487273" y="162.120824" style="fill: #ff0000; stroke: #ff0000"/>
    </g>
   </g>
   <g id="line2d_18">
    <path d="M 73.832727 169.422759 
L 75.464157 169.422759 
L 80.358447 154.629788 
L 85.252736 140.172607 
L 88.515596 131.085259 
L 91.778456 122.608544 
L 95.041316 114.877499 
L 98.304175 108.015288 
L 99.935605 104.944749 
L 101.567035 102.131236 
L 103.198465 99.585966 
L 104.829895 97.319087 
L 106.461325 95.339639 
L 108.092755 93.655514 
L 109.724185 92.273427 
L 111.355614 91.198891 
L 112.987044 90.436191 
L 114.618474 89.98837 
L 116.249904 89.857214 
L 117.881334 90.043251 
L 119.512764 90.545739 
L 121.144194 91.362678 
L 122.775624 92.490813 
L 124.407053 93.92565 
L 126.038483 95.661471 
L 127.669913 97.691359 
L 129.301343 100.007223 
L 130.932773 102.599833 
L 132.564203 105.458856 
L 134.195633 108.572897 
L 137.458492 115.515417 
L 140.721352 123.316813 
L 143.984212 131.852821 
L 147.247072 140.987475 
L 152.141361 155.491584 
L 165.1928 195.150215 
L 168.45566 204.43112 
L 171.71852 213.154525 
L 174.98138 221.181463 
L 178.244239 228.384058 
L 181.507099 234.647566 
L 183.138529 237.39535 
L 184.769959 239.872201 
L 186.401389 242.068244 
L 188.032819 243.974724 
L 189.664249 245.58404 
L 191.295678 246.889774 
L 192.927108 247.886719 
L 194.558538 248.5709 
L 196.189968 248.939589 
L 197.821398 248.991313 
L 199.452828 248.725866 
L 201.084258 248.144303 
L 202.715688 247.248942 
L 204.347117 246.043351 
L 205.978547 244.532333 
L 207.609977 242.721912 
L 209.241407 240.619303 
L 210.872837 238.232887 
L 212.504267 235.572175 
L 214.135697 232.647773 
L 217.398556 226.05553 
L 220.661416 218.561163 
L 223.924276 210.284046 
L 227.187136 201.356025 
L 232.081425 187.056925 
L 240.238575 162.086307 
L 245.132864 147.294186 
L 250.027154 133.293841 
L 253.290014 124.64926 
L 256.552873 116.717894 
L 259.815733 109.626089 
L 261.447163 106.430899 
L 263.078593 103.486818 
L 264.710023 100.805582 
L 266.341453 98.39788 
L 267.972883 96.273311 
L 269.604312 94.440345 
L 271.235742 92.906289 
L 272.867172 91.677259 
L 274.498602 90.758154 
L 276.130032 90.15264 
L 277.761462 89.86313 
L 279.392892 89.89078 
L 281.024322 90.235479 
L 282.655751 90.895855 
L 284.287181 91.869274 
L 285.918611 93.151858 
L 287.550041 94.738494 
L 289.181471 96.622857 
L 290.812901 98.797436 
L 292.444331 101.253563 
L 294.075761 103.981448 
L 295.70719 106.970217 
L 298.97005 113.681756 
L 302.23291 121.281273 
L 305.49577 129.647713 
L 308.75863 138.647805 
L 313.652919 153.020228 
L 329.967218 202.160206 
L 333.230078 211.037553 
L 336.492937 219.252053 
L 339.755797 226.672854 
L 343.018657 233.181742 
L 344.650087 236.061204 
L 346.281517 238.675034 
L 347.912947 241.012813 
L 349.544376 243.065222 
L 351.175806 244.824078 
L 352.807236 246.28237 
L 354.438666 247.434285 
L 356.070096 248.275229 
L 357.701526 248.801851 
L 359.332956 249.012051 
L 360.964386 248.90499 
L 362.595815 248.481095 
L 364.227245 247.742056 
L 365.858675 246.690819 
L 367.490105 245.331573 
L 369.121535 243.669736 
L 370.752965 241.711934 
L 372.384395 239.465969 
L 374.015825 236.940796 
L 375.647254 234.14648 
L 377.278684 231.094159 
L 380.541544 224.265154 
L 383.804404 216.56256 
L 387.067264 208.109075 
L 390.330123 199.039354 
L 395.224413 184.597491 
L 398.487273 174.635035 
L 398.487273 174.635035 
" clip-path="url(#p8be91ba3cf)" style="fill: none; stroke: #000000; stroke-width: 1.5; stroke-linecap: square"/>
   </g>
   <g id="patch_3">
    <path d="M 57.6 307.584 
L 57.6 41.472 
" style="fill: none; stroke: #000000; stroke-width: 0.8; stroke-linejoin: miter; stroke-linecap: square"/>
   </g>
   <g id="patch_4">
    <path d="M 414.72 307.584 
L 414.72 41.472 
" style="fill: none; stroke: #000000; stroke-width: 0.8; stroke-linejoin: miter; stroke-linecap: square"/>
   </g>
   <g id="patch_5">
    <path d="M 57.6 307.584 
L 414.72 307.584 
" style="fill: none; stroke: #000000; stroke-width: 0.8; stroke-linejoin: miter; stroke-linecap: square"/>
   </g>
   <g id="patch_6">
    <path d="M 57.6 41.472 
L 414.72 41.472 
" style="fill: none; stroke: #000000; stroke-width: 0.8; stroke-linejoin: miter; stroke-linecap: square"/>
   </g>
   <g id="text_19">
    <!-- Kalman Filter -->
    <g transform="translate(196.895625 35.472) scale(0.12 -0.12)">
     <defs>
      <path id="DejaVuSans-4b" d="M 628 4666 
L 1259 4666 
L 1259 2694 
L 3353 4666 
L 4166 4666 
L 1850 2491 
L 4331 0 
L 3500 0 
L 1259 2247 
L 1259 0 
L 628 0 
L 628 4666 
z
" transform="scale(0.015625)"/>
      <path id="DejaVuSans-61" d="M 2194 1759 
Q 1497 1759 1228 1600 
Q 959 1441 959 1056 
Q 959 750 1161 570 
Q 1363 391 1709 391 
Q 2188 391 2477 730 
Q 2766 1069 2766 1631 
L 2766 1759 
L 2194 1759 
z
M 3341 1997 
L 3341 0 
L 2766 0 
L 2766 531 
Q 2569 213 2275 61 
Q 1981 -91 1556 -91 
Q 1019 -91 701 211 
Q 384 513 384 1019 
Q 384 1609 779 1909 
Q 1175 2209 1959 2209 
L 2766 2209 
L 2766 2266 
Q 2766 2663 2505 2880 
Q 2244 3097 1772 3097 
Q 1472 3097 1187 3025 
Q 903 2953 641 2809 
L 641 3341 
Q 956 3463 1253 3523 
Q 1550 3584 1831 3584 
Q 2591 3584 2966 3190 
Q 3341 2797 3341 1997 
z
" transform="scale(0.015625)"/>
      <path id="DejaVuSans-6c" d="M 603 4863 
L 1178 4863 
L 1178 0 
L 603 0 
L 603 4863 
z
" transform="scale(0.015625)"/>
      <path id="DejaVuSans-6d" d="M 3328 2828 
Q 3544 3216 3844 3400 
Q 4144 3584 4550 3584 
Q 5097 3584 5394 3201 
Q 5691 2819 5691 2113 
L 5691 0 
L 5113 0 
L 5113 2094 
Q 5113 2597 4934 2840 
Q 4756 3084 4391 3084 
Q 3944 3084 3684 2787 
Q 3425 2491 3425 1978 
L 3425 0 
L 2847 0 
L 2847 2094 
Q 2847 2600 2669 2842 
Q 2491 3084 2119 3084 
Q 1678 3084 1418 2786 
Q 1159 2488 1159 1978 
L 1159 0 
L 581 0 
L 581 3500 
L 1159 3500 
L 1159 2956 
Q 1356 3278 1631 3431 
Q 1906 3584 2284 3584 
Q 2666 3584 2933 3390 
Q 3200 3197 3328 2828 
z
" transform="scale(0.015625)"/>
      <path id="DejaVuSans-6e" d="M 3513 2113 
L 3513 0 
L 2938 0 
L 2938 2094 
Q 2938 2591 2744 2837 
Q 2550 3084 2163 3084 
Q 1697 3084 1428 2787 
Q 1159 2491 1159 1978 
L 1159 0 
L 581 0 
L 581 3500 
L 1159 3500 
L 1159 2956 
Q 1366 3272 1645 3428 
Q 1925 3584 2291 3584 
Q 2894 3584 3203 3211 
Q 3513 2838 3513 2113 
z
" transform="scale(0.015625)"/>
      <path id="DejaVuSans-20" transform="scale(0.015625)"/>
      <path id="DejaVuSans-46" d="M 628 4666 
L 3309 4666 
L 3309 4134 
L 1259 4134 
L 1259 2759 
L 3109 2759 
L 3109 2228 
L 1259 2228 
L 1259 0 
L 628 0 
L 628 4666 
z
" transform="scale(0.015625)"/>
      <path id="DejaVuSans-69" d="M 603 3500 
L 1178 3500 
L 1178 0 
L 603 0 
L 603 3500 
z
M 603 4863 
L 1178 4863 
L 1178 4134 
L 603 4134 
L 603 4863 
z
" transform="scale(0.015625)"/>
      <path id="DejaVuSans-65" d="M 3597 1894 
L 3597 1613 
L 953 1613 
Q 991 1019 1311 708 
Q 1631 397 2203 397 
Q 2534 397 2845 478 
Q 3156 559 3463 722 
L 3463 178 
Q 3153 47 2828 -22 
Q 2503 -91 2169 -91 
Q 1331 -91 842 396 
Q 353 884 353 1716 
Q 353 2575 817 3079 
Q 1281 3584 2069 3584 
Q 2775 3584 3186 3129 
Q 3597 2675 3597 1894 
z
M 3022 2063 
Q 3016 2534 2758 2815 
Q 2500 3097 2075 3097 
Q 1594 3097 1305 2825 
Q 1016 2553 972 2059 
L 3022 2063 
z
" transform="scale(0.015625)"/>
      <path id="DejaVuSans-72" d="M 2631 2963 
Q 2534 3019 2420 3045 
Q 2306 3072 2169 3072 
Q 1681 3072 1420 2755 
Q 1159 2438 1159 1844 
L 1159 0 
L 581 0 
L 581 3500 
L 1159 3500 
L 1159 2956 
Q 1341 3275 1631 3429 
Q 1922 3584 2338 3584 
Q 2397 3584 2469 3576 
Q 2541 3569 2628 3553 
L 2631 2963 
z
" transform="scale(0.015625)"/>
     </defs>
     <use xlink:href="#DejaVuSans-4b"/>
     <use xlink:href="#DejaVuSans-61" x="63.826172"/>
     <use xlink:href="#DejaVuSans-6c" x="125.105469"/>
     <use xlink:href="#DejaVuSans-6d" x="152.888672"/>
     <use xlink:href="#DejaVuSans-61" x="250.300781"/>
     <use xlink:href="#DejaVuSans-6e" x="311.580078"/>
     <use xlink:href="#DejaVuSans-20" x="374.958984"/>
     <use xlink:href="#DejaVuSans-46" x="406.746094"/>
     <use xlink:href="#DejaVuSans-69" x="457.015625"/>
     <use xlink:href="#DejaVuSans-6c" x="484.798828"/>
     <use xlink:href="#DejaVuSans-74" x="512.582031"/>
     <use xlink:href="#DejaVuSans-65" x="551.791016"/>
     <use xlink:href="#DejaVuSans-72" x="613.314453"/>
    </g>
   </g>
   <g id="legend_1">
    <g id="patch_7">
     <path d="M 64.6 302.584 
L 172.164062 302.584 
Q 174.164062 302.584 174.164062 300.584 
L 174.164062 257.549625 
Q 174.164062 255.549625 172.164062 255.549625 
L 64.6 255.549625 
Q 62.6 255.549625 62.6 257.549625 
L 62.6 300.584 
Q 62.6 302.584 64.6 302.584 
z
" style="fill: #ffffff; opacity: 0.8; stroke: #cccccc; stroke-linejoin: miter"/>
    </g>
    <g id="line2d_19">
     <g>
      <use xlink:href="#m348fc22558" x="76.6" y="263.648062" style="fill: #ff0000; stroke: #ff0000"/>
     </g>
    </g>
    <g id="text_20">
     <!-- Data -->
     <g transform="translate(94.6 267.148062) scale(0.1 -0.1)">
      <defs>
       <path id="DejaVuSans-44" d="M 1259 4147 
L 1259 519 
L 2022 519 
Q 2988 519 3436 956 
Q 3884 1394 3884 2338 
Q 3884 3275 3436 3711 
Q 2988 4147 2022 4147 
L 1259 4147 
z
M 628 4666 
L 1925 4666 
Q 3281 4666 3915 4102 
Q 4550 3538 4550 2338 
Q 4550 1131 3912 565 
Q 3275 0 1925 0 
L 628 0 
L 628 4666 
z
" transform="scale(0.015625)"/>
      </defs>
      <use xlink:href="#DejaVuSans-44"/>
      <use xlink:href="#DejaVuSans-61" x="77.001953"/>
      <use xlink:href="#DejaVuSans-74" x="138.28125"/>
      <use xlink:href="#DejaVuSans-61" x="177.490234"/>
     </g>
    </g>
    <g id="line2d_20">
     <path d="M 66.6 278.326188 
L 76.6 278.326188 
L 86.6 278.326188 
" style="fill: none; stroke: #000000; stroke-width: 1.5; stroke-linecap: square"/>
    </g>
    <g id="text_21">
     <!-- Mean KF -->
     <g transform="translate(94.6 281.826188) scale(0.1 -0.1)">
      <defs>
       <path id="DejaVuSans-4d" d="M 628 4666 
L 1569 4666 
L 2759 1491 
L 3956 4666 
L 4897 4666 
L 4897 0 
L 4281 0 
L 4281 4097 
L 3078 897 
L 2444 897 
L 1241 4097 
L 1241 0 
L 628 0 
L 628 4666 
z
" transform="scale(0.015625)"/>
      </defs>
      <use xlink:href="#DejaVuSans-4d"/>
      <use xlink:href="#DejaVuSans-65" x="86.279297"/>
      <use xlink:href="#DejaVuSans-61" x="147.802734"/>
      <use xlink:href="#DejaVuSans-6e" x="209.082031"/>
      <use xlink:href="#DejaVuSans-20" x="272.460938"/>
      <use xlink:href="#DejaVuSans-4b" x="304.248047"/>
      <use xlink:href="#DejaVuSans-46" x="369.824219"/>
     </g>
    </g>
    <g id="patch_8">
     <path d="M 66.6 296.504312 
L 86.6 296.504312 
L 86.6 289.504312 
L 66.6 289.504312 
z
" style="fill: #1f77b4; fill-opacity: 0.2"/>
    </g>
    <g id="text_22">
     <!-- Realizations KF -->
     <g transform="translate(94.6 296.504312) scale(0.1 -0.1)">
      <defs>
       <path id="DejaVuSans-52" d="M 2841 2188 
Q 3044 2119 3236 1894 
Q 3428 1669 3622 1275 
L 4263 0 
L 3584 0 
L 2988 1197 
Q 2756 1666 2539 1819 
Q 2322 1972 1947 1972 
L 1259 1972 
L 1259 0 
L 628 0 
L 628 4666 
L 2053 4666 
Q 2853 4666 3247 4331 
Q 3641 3997 3641 3322 
Q 3641 2881 3436 2590 
Q 3231 2300 2841 2188 
z
M 1259 4147 
L 1259 2491 
L 2053 2491 
Q 2509 2491 2742 2702 
Q 2975 2913 2975 3322 
Q 2975 3731 2742 3939 
Q 2509 4147 2053 4147 
L 1259 4147 
z
" transform="scale(0.015625)"/>
       <path id="DejaVuSans-7a" d="M 353 3500 
L 3084 3500 
L 3084 2975 
L 922 459 
L 3084 459 
L 3084 0 
L 275 0 
L 275 525 
L 2438 3041 
L 353 3041 
L 353 3500 
z
" transform="scale(0.015625)"/>
       <path id="DejaVuSans-6f" d="M 1959 3097 
Q 1497 3097 1228 2736 
Q 959 2375 959 1747 
Q 959 1119 1226 758 
Q 1494 397 1959 397 
Q 2419 397 2687 759 
Q 2956 1122 2956 1747 
Q 2956 2369 2687 2733 
Q 2419 3097 1959 3097 
z
M 1959 3584 
Q 2709 3584 3137 3096 
Q 3566 2609 3566 1747 
Q 3566 888 3137 398 
Q 2709 -91 1959 -91 
Q 1206 -91 779 398 
Q 353 888 353 1747 
Q 353 2609 779 3096 
Q 1206 3584 1959 3584 
z
" transform="scale(0.015625)"/>
       <path id="DejaVuSans-73" d="M 2834 3397 
L 2834 2853 
Q 2591 2978 2328 3040 
Q 2066 3103 1784 3103 
Q 1356 3103 1142 2972 
Q 928 2841 928 2578 
Q 928 2378 1081 2264 
Q 1234 2150 1697 2047 
L 1894 2003 
Q 2506 1872 2764 1633 
Q 3022 1394 3022 966 
Q 3022 478 2636 193 
Q 2250 -91 1575 -91 
Q 1294 -91 989 -36 
Q 684 19 347 128 
L 347 722 
Q 666 556 975 473 
Q 1284 391 1588 391 
Q 1994 391 2212 530 
Q 2431 669 2431 922 
Q 2431 1156 2273 1281 
Q 2116 1406 1581 1522 
L 1381 1569 
Q 847 1681 609 1914 
Q 372 2147 372 2553 
Q 372 3047 722 3315 
Q 1072 3584 1716 3584 
Q 2034 3584 2315 3537 
Q 2597 3491 2834 3397 
z
" transform="scale(0.015625)"/>
      </defs>
      <use xlink:href="#DejaVuSans-52"/>
      <use xlink:href="#DejaVuSans-65" x="64.982422"/>
      <use xlink:href="#DejaVuSans-61" x="126.505859"/>
      <use xlink:href="#DejaVuSans-6c" x="187.785156"/>
      <use xlink:href="#DejaVuSans-69" x="215.568359"/>
      <use xlink:href="#DejaVuSans-7a" x="243.351562"/>
      <use xlink:href="#DejaVuSans-61" x="295.841797"/>
      <use xlink:href="#DejaVuSans-74" x="357.121094"/>
      <use xlink:href="#DejaVuSans-69" x="396.330078"/>
      <use xlink:href="#DejaVuSans-6f" x="424.113281"/>
      <use xlink:href="#DejaVuSans-6e" x="485.294922"/>
      <use xlink:href="#DejaVuSans-73" x="548.673828"/>
      <use xlink:href="#DejaVuSans-20" x="600.773438"/>
      <use xlink:href="#DejaVuSans-4b" x="632.560547"/>
      <use xlink:href="#DejaVuSans-46" x="698.136719"/>
     </g>
    </g>
   </g>
  </g>
 </g>
 <defs>
  <clipPath id="p8be91ba3cf">
   <rect x="57.6" y="41.472" width="357.12" height="266.112"/>
  </clipPath>
 </defs>
</svg>
